<svg width="56" height="51" viewBox="0 0 56 51" fill="none" xmlns="http://www.w3.org/2000/svg">
<g clip-path="url(#clip0_2:71)">
<path d="M28.6813 0.112061L26.8592 0.584543L4.41002 6.40563L2.58787 6.87811C1.70343 7.10852 0.945991 7.68228 0.481737 8.47352C0.0174839 9.26476 -0.115672 10.2089 0.111481 11.0987L8.01269 41.9066C8.24183 42.7959 8.81245 43.5576 9.59936 44.0244C10.3863 44.4912 11.3252 44.6251 12.2101 44.3967L12.2149 44.3954L38.2989 37.6318L38.3036 37.6306C39.188 37.4002 39.9455 36.8264 40.4097 36.0352C40.874 35.244 41.0071 34.2999 40.78 33.41L32.8788 2.60211C32.6496 1.71279 32.079 0.951179 31.2921 0.484365C30.5052 0.0175503 29.5663 -0.116343 28.6813 0.112061Z" fill="#F2F2F2"/>
<path d="M28.9272 1.07609L26.769 1.63571L4.99187 7.28253L2.8337 7.84215C2.20386 8.00622 1.66447 8.41481 1.33386 8.97827C1.00326 9.54173 0.90843 10.214 1.07019 10.8477L8.9714 41.6556C9.13458 42.2889 9.54093 42.8313 10.1013 43.1637C10.6617 43.4962 11.3303 43.5915 11.9605 43.4289L11.9652 43.4276L38.0492 36.664L38.054 36.6628C38.6838 36.4987 39.2232 36.0901 39.5538 35.5267C39.8844 34.9632 39.9792 34.2909 39.8174 33.6572L31.9162 2.84931C31.7531 2.21601 31.3467 1.67365 30.7863 1.34123C30.226 1.0088 29.5574 0.913443 28.9272 1.07609V1.07609Z" fill="white"/>
<path d="M27.2975 11.0525L14.1023 14.4741C13.9549 14.5123 13.7984 14.4901 13.6674 14.4123C13.5363 14.3345 13.4413 14.2076 13.4033 14.0594C13.3653 13.9112 13.3874 13.7539 13.4647 13.6221C13.542 13.4903 13.6683 13.3948 13.8157 13.3566L27.0109 9.93501C27.1582 9.89695 27.3146 9.91926 27.4456 9.99703C27.5765 10.0748 27.6714 10.2017 27.7094 10.3498C27.7474 10.4979 27.7254 10.6551 27.6481 10.7869C27.5709 10.9186 27.4448 11.0142 27.2975 11.0525V11.0525Z" fill="#F2F2F2"/>
<path d="M30.0734 12.3439L14.5859 16.3598C14.4385 16.398 14.2821 16.3758 14.151 16.2981C14.0199 16.2203 13.9249 16.0934 13.8869 15.9452C13.8489 15.797 13.871 15.6397 13.9483 15.5079C14.0257 15.3761 14.1519 15.2805 14.2993 15.2423L29.7868 11.2264C29.9342 11.1882 30.0906 11.2104 30.2217 11.2882C30.3528 11.3659 30.4478 11.4929 30.4858 11.6411C30.5238 11.7893 30.5017 11.9466 30.4243 12.0784C30.347 12.2102 30.2208 12.3057 30.0734 12.3439V12.3439Z" fill="#F2F2F2"/>
<path d="M29.465 19.5036L16.2697 22.9252C16.1967 22.9441 16.1208 22.9484 16.0461 22.9378C15.9715 22.9272 15.8997 22.9019 15.8348 22.8634C15.7699 22.8249 15.7132 22.7739 15.6678 22.7134C15.6225 22.6528 15.5895 22.5839 15.5707 22.5105C15.5519 22.4371 15.5476 22.3607 15.5582 22.2857C15.5687 22.2107 15.5938 22.1385 15.6321 22.0732C15.6704 22.0079 15.7211 21.9509 15.7813 21.9053C15.8416 21.8598 15.9101 21.8266 15.9831 21.8077L29.1784 18.3861C29.2513 18.3672 29.3273 18.3629 29.4019 18.3735C29.4765 18.3841 29.5484 18.4094 29.6133 18.4479C29.6782 18.4864 29.7349 18.5374 29.7802 18.5979C29.8255 18.6585 29.8585 18.7274 29.8774 18.8008C29.8962 18.8741 29.9004 18.9505 29.8899 19.0256C29.8794 19.1006 29.8542 19.1728 29.8159 19.2381C29.7776 19.3033 29.7269 19.3604 29.6667 19.4059C29.6065 19.4515 29.5379 19.4847 29.465 19.5036V19.5036Z" fill="#F2F2F2"/>
<path d="M32.2408 20.795L16.7533 24.8109C16.6804 24.8299 16.6044 24.8341 16.5298 24.8235C16.4551 24.8129 16.3833 24.7877 16.3184 24.7492C16.2535 24.7107 16.1968 24.6597 16.1515 24.5991C16.1062 24.5386 16.0732 24.4696 16.0543 24.3963C16.0355 24.3229 16.0313 24.2465 16.0418 24.1715C16.0523 24.0964 16.0775 24.0242 16.1158 23.959C16.1541 23.8937 16.2048 23.8367 16.265 23.7911C16.3252 23.7455 16.3938 23.7124 16.4667 23.6934L31.9542 19.6775C32.1016 19.6393 32.258 19.6615 32.3891 19.7393C32.5202 19.817 32.6152 19.944 32.6532 20.0922C32.6912 20.2404 32.6691 20.3977 32.5918 20.5295C32.5144 20.6613 32.3882 20.7568 32.2408 20.795Z" fill="#F2F2F2"/>
<path d="M31.6324 27.9547L18.4371 31.3762C18.2898 31.4143 18.1334 31.392 18.0024 31.3143C17.8714 31.2365 17.7765 31.1096 17.7385 30.9615C17.7005 30.8134 17.7226 30.6561 17.7998 30.5244C17.8771 30.3926 18.0032 30.297 18.1505 30.2587L31.3458 26.8372C31.4932 26.799 31.6496 26.8212 31.7807 26.899C31.9118 26.9767 32.0068 27.1037 32.0448 27.2518C32.0828 27.4 32.0607 27.5573 31.9833 27.6891C31.906 27.821 31.7798 27.9165 31.6324 27.9547Z" fill="#F2F2F2"/>
<path d="M34.4083 29.2461L18.9208 33.262C18.8478 33.281 18.7718 33.2854 18.6971 33.2748C18.6224 33.2643 18.5505 33.239 18.4856 33.2005C18.4206 33.162 18.3638 33.111 18.3185 33.0505C18.2731 32.9899 18.2401 32.9209 18.2213 32.8475C18.2024 32.7741 18.1982 32.6976 18.2088 32.6226C18.2193 32.5475 18.2445 32.4753 18.2828 32.41C18.3212 32.3447 18.3719 32.2876 18.4322 32.2421C18.4925 32.1965 18.5611 32.1634 18.6342 32.1445L34.1216 28.1286C34.269 28.0904 34.4255 28.1126 34.5566 28.1904C34.6876 28.2681 34.7826 28.3951 34.8206 28.5433C34.8586 28.6915 34.8365 28.8488 34.7592 28.9806C34.6819 29.1124 34.5556 29.2079 34.4083 29.2461V29.2461Z" fill="#F2F2F2"/>
<path d="M11.8496 17.9824L7.17996 19.1932C7.10929 19.2115 7.03432 19.2008 6.97149 19.1635C6.90865 19.1262 6.86309 19.0654 6.84479 18.9944L5.77287 14.8148C5.75473 14.7438 5.76536 14.6684 5.80244 14.6052C5.83951 14.542 5.89999 14.4962 5.97061 14.4778L10.6403 13.2669C10.711 13.2487 10.7859 13.2594 10.8488 13.2967C10.9116 13.3339 10.9572 13.3948 10.9755 13.4658L12.0474 17.6453C12.0655 17.7164 12.0549 17.7918 12.0178 17.855C11.9807 17.9181 11.9203 17.964 11.8496 17.9824V17.9824Z" fill="#E6E6E6"/>
<path d="M14.0171 26.4334L9.34738 27.6443C9.27671 27.6625 9.20174 27.6518 9.13891 27.6146C9.07607 27.5773 9.03051 27.5165 9.01221 27.4454L7.94029 23.2659C7.92215 23.1948 7.93279 23.1194 7.96986 23.0563C8.00693 22.9931 8.06741 22.9473 8.13803 22.9289L12.8077 21.718C12.8784 21.6998 12.9533 21.7105 13.0162 21.7477C13.079 21.785 13.1246 21.8458 13.1429 21.9169L14.2148 26.0964C14.2329 26.1675 14.2223 26.2429 14.1852 26.306C14.1482 26.3692 14.0877 26.415 14.0171 26.4334V26.4334Z" fill="#E6E6E6"/>
<path d="M16.1845 34.8845L11.5148 36.0954C11.4441 36.1136 11.3692 36.1029 11.3063 36.0657C11.2435 36.0284 11.1979 35.9676 11.1796 35.8966L10.1077 31.717C10.0896 31.6459 10.1002 31.5705 10.1373 31.5074C10.1743 31.4442 10.2348 31.3984 10.3055 31.38L14.9751 30.1691C15.0458 30.1509 15.1208 30.1616 15.1836 30.1988C15.2464 30.2361 15.292 30.2969 15.3103 30.3679L16.3822 34.5475C16.4004 34.6186 16.3897 34.694 16.3527 34.7571C16.3156 34.8203 16.2551 34.8661 16.1845 34.8845V34.8845Z" fill="#E6E6E6"/>
<path d="M46.8782 7.9196H19.9312C19.0175 7.92064 18.1416 8.28604 17.4955 8.93565C16.8495 9.58525 16.4861 10.466 16.4851 11.3847V43.2005C16.4861 44.1192 16.8495 45 17.4955 45.6496C18.1416 46.2992 19.0175 46.6646 19.9312 46.6656H46.8782C47.7919 46.6646 48.6678 46.2992 49.3139 45.6496C49.9599 45 50.3233 44.1192 50.3243 43.2005V11.3847C50.3233 10.466 49.9599 9.58525 49.3139 8.93565C48.6678 8.28604 47.7919 7.92064 46.8782 7.9196V7.9196Z" fill="#E6E6E6"/>
<path d="M46.8783 8.91713H19.9312C19.2805 8.91786 18.6568 9.17807 18.1967 9.64067C17.7366 10.1033 17.4778 10.7305 17.4771 11.3847V43.2005C17.4778 43.8547 17.7366 44.482 18.1967 44.9446C18.6568 45.4072 19.2805 45.6674 19.9312 45.6681H46.8783C47.5289 45.6674 48.1527 45.4071 48.6128 44.9445C49.0728 44.4819 49.3316 43.8547 49.3323 43.2005V11.3847C49.3316 10.7305 49.0728 10.1033 48.6128 9.64068C48.1527 9.17808 47.5289 8.91787 46.8783 8.91713V8.91713Z" fill="white"/>
<path d="M49.7093 50.5366C53.1835 50.5366 56 47.7046 56 44.2112C56 40.7178 53.1835 37.8858 49.7093 37.8858C46.235 37.8858 43.4186 40.7178 43.4186 44.2112C43.4186 47.7046 46.235 50.5366 49.7093 50.5366Z" fill="#1284FF"/>
<path d="M52.7179 43.3862H50.5298V41.186C50.5298 40.9672 50.4434 40.7574 50.2895 40.6026C50.1356 40.4479 49.9269 40.361 49.7093 40.361C49.4917 40.361 49.283 40.4479 49.1291 40.6026C48.9752 40.7574 48.8887 40.9672 48.8887 41.186V43.3862H46.7007C46.4831 43.3862 46.2743 43.4731 46.1205 43.6278C45.9666 43.7825 45.8801 43.9924 45.8801 44.2112C45.8801 44.43 45.9666 44.6399 46.1205 44.7946C46.2743 44.9493 46.4831 45.0363 46.7007 45.0363H48.8887V47.2364C48.8887 47.4552 48.9752 47.6651 49.1291 47.8198C49.283 47.9745 49.4917 48.0614 49.7093 48.0614C49.9269 48.0614 50.1356 47.9745 50.2895 47.8198C50.4434 47.6651 50.5298 47.4552 50.5298 47.2364V45.0363H52.7179C52.9355 45.0363 53.1442 44.9493 53.2981 44.7946C53.452 44.6399 53.5384 44.43 53.5384 44.2112C53.5384 43.9924 53.452 43.7825 53.2981 43.6278C53.1442 43.4731 52.9355 43.3862 52.7179 43.3862V43.3862Z" fill="white"/>
<path d="M42.8227 26.3998H29.1958C29.1204 26.3999 29.0457 26.3851 28.976 26.3561C28.9063 26.3271 28.8429 26.2846 28.7896 26.2311C28.7362 26.1775 28.6939 26.1138 28.665 26.0438C28.6361 25.9737 28.6213 25.8986 28.6213 25.8228C28.6213 25.747 28.6361 25.6719 28.665 25.6018C28.6939 25.5318 28.7362 25.4681 28.7896 25.4146C28.8429 25.361 28.9063 25.3185 28.976 25.2895C29.0457 25.2606 29.1204 25.2457 29.1958 25.2458H42.8227C42.9748 25.2459 43.1206 25.3068 43.2281 25.415C43.3356 25.5232 43.396 25.6699 43.396 25.8228C43.396 25.9757 43.3356 26.1224 43.2281 26.2306C43.1206 26.3388 42.9748 26.3997 42.8227 26.3998V26.3998Z" fill="#E6E6E6"/>
<path d="M45.1899 28.3473H29.1958C29.1204 28.3474 29.0457 28.3325 28.976 28.3036C28.9063 28.2746 28.8429 28.2321 28.7896 28.1785C28.7362 28.1249 28.6939 28.0613 28.665 27.9913C28.6361 27.9212 28.6213 27.8461 28.6213 27.7703C28.6213 27.6945 28.6361 27.6194 28.665 27.5493C28.6939 27.4793 28.7362 27.4156 28.7896 27.362C28.8429 27.3085 28.9063 27.266 28.976 27.237C29.0457 27.208 29.1204 27.1932 29.1958 27.1933H45.1899C45.3421 27.1933 45.4881 27.2541 45.5957 27.3623C45.7033 27.4705 45.7638 27.6173 45.7638 27.7703C45.7638 27.9233 45.7033 28.0701 45.5957 28.1783C45.4881 28.2865 45.3421 28.3473 45.1899 28.3473Z" fill="#E6E6E6"/>
<path d="M42.8227 35.1274H29.1958C29.1204 35.1275 29.0457 35.1126 28.976 35.0837C28.9063 35.0547 28.8429 35.0122 28.7896 34.9586C28.7362 34.905 28.6939 34.8414 28.665 34.7714C28.6361 34.7013 28.6213 34.6262 28.6213 34.5504C28.6213 34.4746 28.6361 34.3995 28.665 34.3294C28.6939 34.2594 28.7362 34.1957 28.7896 34.1421C28.8429 34.0885 28.9063 34.0461 28.976 34.0171C29.0457 33.9881 29.1204 33.9733 29.1958 33.9734H42.8227C42.9749 33.9734 43.1209 34.0342 43.2285 34.1424C43.3361 34.2506 43.3966 34.3973 43.3966 34.5504C43.3966 34.7034 43.3361 34.8502 43.2285 34.9584C43.1209 35.0666 42.9749 35.1274 42.8227 35.1274V35.1274Z" fill="#E6E6E6"/>
<path d="M45.19 37.0749H29.1958C29.1204 37.075 29.0457 37.0601 28.976 37.0312C28.9063 37.0022 28.8429 36.9597 28.7896 36.9061C28.7362 36.8525 28.6939 36.7889 28.665 36.7188C28.6361 36.6488 28.6213 36.5737 28.6213 36.4979C28.6213 36.422 28.6361 36.347 28.665 36.2769C28.6939 36.2069 28.7362 36.1432 28.7896 36.0896C28.8429 36.036 28.9063 35.9935 28.976 35.9646C29.0457 35.9356 29.1204 35.9208 29.1958 35.9208H45.19C45.2654 35.9208 45.3401 35.9356 45.4098 35.9646C45.4795 35.9935 45.5428 36.036 45.5962 36.0896C45.6495 36.1432 45.6918 36.2069 45.7207 36.2769C45.7496 36.347 45.7645 36.422 45.7645 36.4979C45.7645 36.5737 45.7496 36.6488 45.7207 36.7188C45.6918 36.7889 45.6495 36.8525 45.5962 36.9061C45.5428 36.9597 45.4795 37.0022 45.4098 37.0312C45.3401 37.0601 45.2654 37.075 45.19 37.0749Z" fill="#E6E6E6"/>
<path d="M26.1432 29.2314H21.3208C21.2478 29.2313 21.1779 29.2021 21.1263 29.1503C21.0747 29.0984 21.0457 29.0281 21.0456 28.9547V24.6384C21.0457 24.565 21.0747 24.4947 21.1263 24.4428C21.1779 24.391 21.2478 24.3618 21.3208 24.3617H26.1432C26.2162 24.3618 26.2861 24.391 26.3377 24.4428C26.3893 24.4947 26.4183 24.565 26.4184 24.6384V28.9547C26.4183 29.0281 26.3893 29.0984 26.3377 29.1503C26.2861 29.2021 26.2162 29.2313 26.1432 29.2314V29.2314Z" fill="#E6E6E6"/>
<path d="M26.1432 37.959H21.3208C21.2478 37.9589 21.1779 37.9297 21.1263 37.8778C21.0747 37.826 21.0457 37.7556 21.0456 37.6823V33.366C21.0457 33.2926 21.0747 33.2223 21.1263 33.1704C21.1779 33.1185 21.2478 33.0894 21.3208 33.0893H26.1432C26.2162 33.0894 26.2861 33.1185 26.3377 33.1704C26.3893 33.2223 26.4183 33.2926 26.4184 33.366V37.6823C26.4183 37.7556 26.3893 37.826 26.3377 37.8778C26.2861 37.9297 26.2162 37.9589 26.1432 37.959V37.959Z" fill="#E6E6E6"/>
<path d="M42.8379 16.6843H32.7912C32.639 16.6843 32.4931 16.6235 32.3855 16.5153C32.2778 16.4071 32.2174 16.2603 32.2174 16.1073C32.2174 15.9543 32.2778 15.8075 32.3855 15.6993C32.4931 15.5911 32.639 15.5303 32.7912 15.5303H42.8379C42.9901 15.5303 43.136 15.5911 43.2436 15.6993C43.3513 15.8075 43.4117 15.9543 43.4117 16.1073C43.4117 16.2603 43.3513 16.4071 43.2436 16.5153C43.136 16.6235 42.9901 16.6843 42.8379 16.6843Z" fill="#CCCCCC"/>
<path d="M45.2051 18.6318H32.7912C32.7159 18.6318 32.6413 18.6169 32.5716 18.5879C32.502 18.5589 32.4387 18.5164 32.3855 18.4628C32.3322 18.4092 32.2899 18.3456 32.2611 18.2756C32.2322 18.2056 32.2174 18.1305 32.2174 18.0548C32.2174 17.979 32.2322 17.904 32.2611 17.8339C32.2899 17.7639 32.3322 17.7003 32.3855 17.6467C32.4387 17.5932 32.502 17.5507 32.5716 17.5217C32.6413 17.4927 32.7159 17.4777 32.7912 17.4777H45.2051C45.3573 17.4777 45.5032 17.5385 45.6109 17.6467C45.7185 17.755 45.7789 17.9017 45.7789 18.0548C45.7789 18.2078 45.7185 18.3546 45.6109 18.4628C45.5032 18.571 45.3573 18.6318 45.2051 18.6318V18.6318Z" fill="#CCCCCC"/>
<path d="M30.5678 20.9919H21.3057C21.2327 20.9918 21.1628 20.9626 21.1112 20.9108C21.0596 20.8589 21.0306 20.7886 21.0305 20.7152V13.4468C21.0306 13.3735 21.0596 13.3031 21.1112 13.2513C21.1628 13.1994 21.2327 13.1702 21.3057 13.1702H30.5678C30.6407 13.1702 30.7107 13.1994 30.7623 13.2513C30.8138 13.3031 30.8429 13.3735 30.8429 13.4468V20.7152C30.8429 20.7886 30.8138 20.8589 30.7623 20.9108C30.7107 20.9626 30.6407 20.9918 30.5678 20.9919V20.9919Z" fill="#1284FF"/>
</g>
<defs>
<clipPath id="clip0_2:71">
<rect width="56" height="50.5366" fill="white"/>
</clipPath>
</defs>
</svg>
